<svg version="1.1" xmlns="http://www.w3.org/2000/svg" style="display: block;" viewBox="0 0 2048 2048" width="1000" height="1000" preserveAspectRatio="none">
<defs>
	<linearGradient id="Gradient1" gradientUnits="userSpaceOnUse" x1="879.515" y1="1103.14" x2="574.644" y2="1793.26">
		<stop class="stop0" offset="0" stop-opacity="1" stop-color="rgb(41,121,253)"/>
		<stop class="stop1" offset="1" stop-opacity="1" stop-color="rgb(122,185,255)"/>
	</linearGradient>
</defs>
<path transform="translate(0,0)" fill="rgb(0,48,197)" d="M 357.602 0 L 1692.45 0 C 1701.93 3.29256 1713.31 2.10541 1723.08 3.95577 C 1736.05 6.40941 1749.48 9.46996 1762.11 13.2465 C 1867.07 43.8468 1955.03 115.904 2005.68 212.792 C 2022.22 243.736 2036.99 285.333 2043.62 319.616 C 2045.85 331.136 2044.86 344.5 2048 356.212 L 2048 1694.49 C 2045.26 1706.1 2045.33 1717.58 2043.42 1729.12 C 2026.41 1831.57 1955.45 1932.18 1869.15 1987.72 C 1828.74 2014.18 1783.56 2032.52 1736.14 2041.71 C 1728.69 2043.22 1721.81 2044.53 1714.29 2045.71 C 1708.5 2046.62 1697.45 2046.42 1692.76 2048 L 354.461 2048 C 345.733 2045.96 324.151 2043.99 312.247 2041.69 C 269.744 2033.21 228.994 2017.56 191.747 1995.4 C 105.797 1944.13 42.359 1862.31 14.1084 1766.3 C 10.3956 1753.33 6.53107 1739.16 4.22469 1725.85 C 2.28754 1714.68 3.08742 1702.9 0 1691.72 L 0 359.432 C 2.85982 351.363 2.60315 329.072 5.29122 317.678 C 15.5522 273.923 30.1477 230.506 53.2501 191.736 C 112.982 91.4951 215.513 22.0554 330.582 3.11077 C 339.639 1.61965 348.589 2.74202 357.602 0 z"/>
<path transform="translate(0,0)" fill="rgb(250,249,249)" d="M 513.85 1485.57 C 517.607 1350.63 516.052 1207.57 516.14 1072.09 L 516.718 923.123 C 516.831 881.667 515.703 838.092 519.697 796.994 C 530.779 681.04 580.867 572.275 661.773 488.476 C 758.315 388.609 881.139 332.779 1020.94 329.036 C 1162.27 325.251 1302.35 376.436 1404.56 475.672 C 1503.86 573.097 1560.11 706.161 1560.81 845.271 C 1563.82 981.941 1512.03 1114.14 1416.99 1212.4 C 1337.4 1293.27 1231.67 1343.23 1118.65 1353.35 C 1086.24 1356.37 1053.66 1355.78 1021.13 1355.76 C 974.133 1355.57 927.137 1355.61 880.142 1355.89 L 880.174 1460.49 C 880.199 1483.22 881.214 1515 879.081 1536.72 C 872.072 1602.9 842.849 1664.75 796.178 1712.18 C 744.487 1763.92 672.221 1795.91 598.981 1797.17 C 549.35 1798.02 512.94 1760.76 513.022 1711.54 C 513.14 1640.74 512.529 1570.06 513.053 1499.27 C 513.076 1494.5 513.184 1490.31 513.85 1485.57 z"/>
<path transform="translate(0,0)" fill="url(#Gradient1)" d="M 514.647 1507.74 C 525.211 1421.34 563.702 1340.75 624.266 1278.23 C 697.561 1201.66 796.184 1156.44 901.065 1145.42 C 927.849 1142.6 955.365 1142.8 982.299 1142.24 C 960.264 1152.68 945.201 1160.55 928.114 1178.42 C 876.016 1232.89 879.511 1287.7 880.142 1355.89 L 880.174 1460.49 C 880.199 1483.22 881.214 1515 879.081 1536.72 C 872.072 1602.9 842.849 1664.75 796.178 1712.18 C 744.487 1763.92 672.221 1795.91 598.981 1797.17 C 549.35 1798.02 512.94 1760.76 513.022 1711.54 C 513.14 1640.74 512.529 1570.06 513.053 1499.27 C 513.076 1494.5 513.184 1490.31 513.85 1485.57 C 513.861 1492.97 514.126 1500.36 514.647 1507.74 z"/>
<path transform="translate(0,0)" fill="rgb(254,177,1)" d="M 1039.34 680.06 C 1136.51 679.944 1215.43 758.514 1215.75 855.682 C 1216.07 952.85 1137.66 1031.94 1040.5 1032.46 C 943.042 1032.98 863.67 954.296 863.35 856.839 C 863.03 759.383 941.883 680.176 1039.34 680.06 z"/>
</svg>